PathFileType	4	(X/Y/Z)	c:\Git\powerlifing_model_clean\simulations\HC835B\Session1\HC835B_OGW_0005\marker_experimental.trc
DataRate	CameraRate	NumFrames	NumMarkers	Units	OrigDataRate	OrigDataStartFrame	OrigNumFrames
240.000000	240.000000	4	38	mm	240.000000	261	418
Frame#	Time	RPSI			LPSI			RASI			LASI			RTH1			RTH2			RTH3			RTH4			RSK1			RSK2			RSK3			RSK4			RCAL1			RCAL2			RCAL3			RST			RPT			RTN			RFMB			RSMB			RVMB			RFMH			RSMH			RVMH			RPM			LTH1			LTH2			LTH3			LTH4			LSK1			LSK2			LSK3			LSK4			LCAL1			LCAL2			LCAL3			LFMH			LVMH			
		X1	Y1	Z1	X2	Y2	Z2	X3	Y3	Z3	X4	Y4	Z4	X5	Y5	Z5	X6	Y6	Z6	X7	Y7	Z7	X8	Y8	Z8	X9	Y9	Z9	X10	Y10	Z10	X11	Y11	Z11	X12	Y12	Z12	X13	Y13	Z13	X14	Y14	Z14	X15	Y15	Z15	X16	Y16	Z16	X17	Y17	Z17	X18	Y18	Z18	X19	Y19	Z19	X20	Y20	Z20	X21	Y21	Z21	X22	Y22	Z22	X23	Y23	Z23	X24	Y24	Z24	X25	Y25	Z25	X26	Y26	Z26	X27	Y27	Z27	X28	Y28	Z28	X29	Y29	Z29	X30	Y30	Z30	X31	Y31	Z31	X32	Y32	Z32	X33	Y33	Z33	X34	Y34	Z34	X35	Y35	Z35	X36	Y36	Z36	X37	Y37	Z37	X38	Y38	Z38	

262	1.0875	453.1433105468751	1078.86181640625	-696.0445556640626	562.9521484375001	1085.5791015625	-698.1823730468751	406.7986755371095	1046.478881835938	-482.486541748047	651.3650512695314	1043.281860351563	-496.0654296875001	327.7080688476563	781.5797119140627	-470.4104003906251	341.3936157226563	795.445251464844	-412.8997802734376	340.8623657226563	716.2262573242189	-417.6176757812501	364.7896728515626	728.1140747070314	-365.4060974121094	399.0616149902345	276.1602783203126	-318.9460144042969	386.0426330566407	285.0805053710938	-259.1968994140626	401.0485229492189	230.3707580566407	-282.2163696289063	399.7189941406251	241.4191894531251	-222.5532836914063	471.0110778808595	80.44444274902345	-257.3799133300782	502.4012451171876	50.88507080078126	-231.9055328369141	438.9039611816407	45.35848999023438	-244.6286163330079	503.0852966308595	89.10210418701173	-172.5797271728516	404.0855407714845	71.53624725341798	-198.7849731445313	476.6665954589845	126.3056640625	-134.9469909667969	469.1134033203126	123.0828247070313	-99.76167297363284	418.9802551269532	142.9612884521485	-106.4001007080078	388.9710083007814	61.45580673217775	-148.9574279785157	467.2360839843751	116.5360641479492	-40.53844833374024	409.7628784179689	133.0988922119141	-42.13751983642579	357.8949584960938	77.78443908691408	-77.73365020751955	411.036102294922	149.4051818847657	10.78501605987549	704.0907592773439	789.7232666015627	-659.2731933593751	698.8710937500001	761.7316894531251	-605.8150634765626	695.1617431640626	704.9468994140626	-663.4317626953126	676.8195190429689	678.0906372070314	-611.1927490234376	651.3634643554689	324.1037597656251	-930.670104980469	656.8096313476564	284.3704223632813	-895.3604125976565	647.4934082031251	268.6443176269532	-941.920593261719	638.5689086914064	229.5177307128907	-901.960632324219	587.3650512695314	153.3495635986328	-1063.606811523438	615.3104858398439	116.1699829101563	-1075.200561523438	556.6608276367189	116.9014511108399	-1069.819702148438	561.7882080078126	58.79347610473634	-855.4959106445315	662.6654052734376	36.39708328247071	-907.7725830078127	
263	1.091666666666667	452.7881164550782	1077.875	-687.6951904296876	562.7067871093751	1084.439086914063	-690.1380004882814	406.3328552246095	1046.051025390625	-473.9236450195314	650.8314819335939	1042.125610351563	-488.0430908203126	327.8855285644532	781.4385375976565	-461.352020263672	341.4288940429688	795.2502441406252	-403.905242919922	340.9380187988282	716.0050659179689	-408.5307006835939	364.8061828613282	727.9099121093751	-356.3341979980469	399.9178161621095	275.0465087890626	-312.5406494140626	387.7498779296876	283.9494323730469	-252.6270446777344	402.1956787109376	229.4370880126954	-276.0802612304688	401.716522216797	239.7584991455079	-216.5200347900391	472.3016052246095	80.62595367431642	-252.7602691650391	503.3010864257814	50.21285629272462	-229.7330017089844	439.8325805664064	46.01044082641602	-242.2801208496094	504.7925720214845	85.96141815185548	-168.974365234375	405.2414855957032	70.99332427978517	-195.8308258056641	479.4430236816407	124.4269180297852	-129.5589752197266	471.0491027832032	119.1768646240235	-95.68335723876955	421.2111206054689	139.9909973144532	-101.927490234375	390.4438781738282	59.84812164306642	-146.6306915283203	468.6990356445314	111.494743347168	-37.2595443725586	411.4827575683595	128.7964477539063	-37.66592407226563	358.7524414062501	74.2885208129883	-75.44268035888673	412.8136596679689	144.1045684814453	15.22629737854004	703.8616943359376	788.4992675781252	-651.1972656250001	698.6889648437501	760.6614990234376	-597.6745605468751	694.6856689453126	703.6660766601564	-655.0343627929689	676.6819458007814	676.9979858398439	-602.8200683593751	651.7821655273439	325.7140808105469	-925.4951171875002	657.4558715820314	285.4663696289063	-890.8098144531252	648.0255126953126	270.4361267089844	-937.5510253906252	639.2843017578126	230.6660919189454	-898.2251586914065	587.8660278320314	157.1568145751953	-1060.497314453125	615.6624755859376	120.1234817504883	-1072.967895507813	556.9574584960939	121.0356903076172	-1067.484741210938	561.9014892578126	58.7333335876465	-854.7647094726565	662.8259277343751	36.71460723876954	-907.3673095703127	
264	1.095833333333333	452.5484008789064	1077.031616210938	-679.4558105468751	562.4295043945314	1083.393188476563	-682.0130615234376	405.8237609863282	1045.583251953125	-465.6018981933595	650.2941284179689	1041.026489257813	-479.924774169922	328.0665893554688	781.1990356445315	-452.5221557617189	341.3546447753907	794.9046020507815	-394.9894104003907	341.1381530761719	715.8633422851564	-399.7299194335939	364.6598510742188	727.6258544921876	-347.3529052734376	400.7545471191407	274.3860168457032	-305.9089355468751	389.2459411621095	283.1933593750001	-245.9137878417969	403.1365966796876	228.6505889892579	-269.6780395507813	403.6515197753907	238.4717254638672	-210.0722656250001	473.2056274414064	81.43969726562501	-249.3700256347657	503.909881591797	49.87705612182619	-227.5518188476563	440.5248413085939	46.69503021240235	-240.2063598632813	506.200653076172	83.08523559570314	-165.4637756347657	406.2855224609376	70.59061431884767	-192.8896636962891	481.2073974609376	121.2145538330078	-125.5188903808594	472.8559570312501	115.6744537353516	-91.67111968994142	423.2034301757814	137.223876953125	-97.38224792480472	391.7214355468751	58.32047271728517	-143.8988037109375	470.1255798339845	106.9713821411133	-34.17248535156251	413.4366149902345	124.7157669067383	-33.35531997680665	360.1640625000001	71.1483612060547	-72.86776733398439	414.7565917968751	139.1618347167969	19.55112266540528	703.6635742187501	787.3115844726565	-642.8923950195314	698.4169921875001	759.5576782226564	-589.2933959960939	694.6585693359376	702.4027709960939	-646.4899291992189	676.5847167968751	675.9178466796876	-594.3028564453126	652.2042846679689	327.4613037109376	-920.0686645507815	658.1057739257814	286.7624511718751	-886.0289306640627	648.5728149414064	272.4328918457032	-932.9703369140627	640.0028076171876	232.1319732666016	-894.4123535156252	588.3060302734376	161.3641662597657	-1057.17333984375	616.1541748046876	124.6838302612305	-1070.219116210938	557.1807861328126	125.4545822143555	-1064.810180664063	562.0082397460939	58.58482742309572	-854.0635986328127	662.8215332031251	36.91215896606446	-906.9113769531252	
265	1.1	452.3265991210939	1076.35107421875	-671.3228759765626	561.9657592773439	1082.508911132813	-673.8869628906251	405.4284667968751	1045.423950195313	-457.1533508300782	649.6737670898439	1039.881958007813	-471.691619873047	328.1774902343751	781.1062622070315	-443.7955627441407	341.0741271972657	794.5323486328127	-386.1680908203126	341.3016662597657	715.4740600585939	-391.1377258300782	364.4093017578126	727.3123168945314	-338.5510559082032	401.3337707519532	274.3123779296876	-298.9957885742188	390.352752685547	282.5948181152344	-238.8444824218751	404.3491821289064	227.8049774169922	-263.3941955566407	404.9216308593751	237.4945068359376	-203.5468902587891	474.472381591797	83.66560363769533	-248.087387084961	504.2249450683595	49.9354591369629	-225.5720977783204	440.8352050781251	47.49242782592774	-238.0235290527344	507.257293701172	80.7165985107422	-162.3345794677735	407.0372924804689	70.25048828125001	-189.8738708496094	482.6870422363282	118.3288497924805	-121.634391784668	474.5375366210939	112.3062362670899	-87.76863098144533	425.0454711914064	134.4951477050782	-92.71362304687501	392.7425537109376	56.97014236450197	-141.0196533203125	471.595916748047	102.090072631836	-31.09821701049805	415.2364807128907	120.6476440429688	-29.06440544128419	361.5309753417969	68.57300567626955	-69.93092346191408	416.8836669921876	133.8685455322266	23.66777610778809	703.4570922851564	786.1152343750002	-634.4426879882814	698.2717895507814	758.5559692382814	-580.7260131835939	695.3088989257814	701.3988647460939	-637.9145507812501	676.5318603515626	674.8943481445314	-585.4503173828126	652.6030273437501	329.4760437011719	-914.3726196289065	658.7429199218751	288.2153625488282	-881.0125122070315	649.0841674804689	274.5547180175782	-928.0908203125002	640.9310913085939	233.7152862548829	-890.1496582031252	588.6536865234376	165.7692108154297	-1053.457397460938	615.9329833984376	128.8719329833985	-1067.65576171875	557.2600708007814	130.1250762939453	-1061.696899414063	562.0836791992189	58.47615051269533	-853.3183593750002	662.5770263671876	36.94856643676759	-906.6110839843752	
